<svg width="200" height="200" viewBox="0 0 200 200" fill="none" xmlns="http://www.w3.org/2000/svg">
  <defs>
    <linearGradient id="logo-gradient" x1="0%" y1="0%" x2="100%" y2="100%">
      <stop offset="0%" style="stop-color:#00bfff;stop-opacity:1" />
      <stop offset="50%" style="stop-color:#87ceeb;stop-opacity:1" />
      <stop offset="100%" style="stop-color:#ffffff;stop-opacity:1" />
    </linearGradient>
    <filter id="glow">
      <feGaussianBlur stdDeviation="3" result="coloredBlur"/>
      <feMerge> 
        <feMergeNode in="coloredBlur"/>
        <feMergeNode in="SourceGraphic"/>
      </feMerge>
    </filter>
  </defs>
  
  <!-- Background Circle -->
  <circle cx="100" cy="100" r="90" fill="url(#logo-gradient)" opacity="0.1"/>
  
  <!-- 3D C Letter with Multiple Layers -->
  <!-- Outer C -->
  <path d="M 60 50 Q 50 50 50 100 Q 50 150 60 150 L 140 150 Q 150 150 150 100 Q 150 50 140 50 Z" 
        fill="#00bfff" opacity="0.8" filter="url(#glow)"/>
  
  <!-- Middle C -->
  <path d="M 70 60 Q 60 60 60 100 Q 60 140 70 140 L 130 140 Q 140 140 140 100 Q 140 60 130 60 Z" 
        fill="#87ceeb" opacity="0.9"/>
  
  <!-- Inner C -->
  <path d="M 80 70 Q 70 70 70 100 Q 70 130 80 130 L 120 130 Q 130 130 130 100 Q 130 70 120 70 Z" 
        fill="#ffffff" opacity="1"/>
  
  <!-- Highlight -->
  <path d="M 65 55 Q 55 55 55 100 Q 55 145 65 145 L 135 145 Q 145 145 145 100 Q 145 55 135 55 Z" 
        fill="#ffffff" opacity="0.3"/>
</svg>

